<svg version="1.1" xmlns="http://www.w3.org/2000/svg" style="display: block;" viewBox="0 0 2048 2048" width="1024" height="1024" preserveAspectRatio="none" xmlns:c2pa="http://c2pa.org/manifest"><metadata><c2pa:manifest>AAAMZ2p1bWIAAAAeanVtZGMycGEAEQAQgAAAqgA4m3EDYzJwYQAAAAxBanVtYgAAAEdqdW1kYzJtYQARABCAAACqADibcQN1cm46YzJwYTpkMzFlNjFiYS0wNmI0LTQ4MzQtYTJkMy0yMDE4MmI2ZTQ4ZjcAAAAB4mp1bWIAAAApanVtZGMyYXMAEQAQgAAAqgA4m3EDYzJwYS5hc3NlcnRpb25zAAAAAO1qdW1iAAAAQWp1bWRjYm9yABEAEIAAAKoAOJtxE2MycGEuYWN0aW9ucy52MgAAAAAYYzJzaCyhu7aw56xJkWc06oZxNuoAAACkY2JvcqFnYWN0aW9uc4GjZmFjdGlvbmxjMnBhLmNyZWF0ZWRxZGlnaXRhbFNvdXJjZVR5cGV4Rmh0dHA6Ly9jdi5pcHRjLm9yZy9uZXdzY29kZXMvZGlnaXRhbHNvdXJjZXR5cGUvdHJhaW5lZEFsZ29yaXRobWljTWVkaWFrZGVzY3JpcHRpb252Q3JlYXRlZCBieSBSZWNyYWZ0IEFJLgAAAMRqdW1iAAAAQGp1bWRjYm9yABEAEIAAAKoAOJtxE2MycGEuaGFzaC5kYXRhAAAAABhjMnNooHXQSJ7aBxPJU6kcPKPuqwAAAHxjYm9ypWpleGNsdXNpb25zgaJlc3RhcnQY22ZsZW5ndGgZEIxkbmFtZW5qdW1iZiBtYW5pZmVzdGNhbGdmc2hhMjU2ZGhhc2hYIKD0G0BVCjXe59yU38MjOuWe9S0OtQzukgtJi7dt4RqrY3BhZEkAAAAAAAAAAAAAAAI0anVtYgAAACdqdW1kYzJjbAARABCAAACqADibcQNjMnBhLmNsYWltLnYyAAAAAgVjYm9ypmppbnN0YW5jZUlEeCx4bXA6aWlkOmIwZDUzMTcwLTgwMDctNDg3Zi05YjdiLTkwNzg5NmFlNDIyMHRjbGFpbV9nZW5lcmF0b3JfaW5mb6NkbmFtZWpyZWNyYWZ0LmFpZ3ZlcnNpb254KDgxY2U4MmUyYzVjM2NiZmJlOGM2ZmJlMTc5ZDVmOGQ5MWM0MDljZTF3b3JnLmNvbnRlbnRhdXRoLmMycGFfcnNmMC45MC43aXNpZ25hdHVyZXhNc2VsZiNqdW1iZj0vYzJwYS91cm46YzJwYTpkMzFlNjFiYS0wNmI0LTQ4MzQtYTJkMy0yMDE4MmI2ZTQ4ZjcvYzJwYS5zaWduYXR1cmVyY3JlYXRlZF9hc3NlcnRpb25zgqJjdXJseCpzZWxmI2p1bWJmPWMycGEuYXNzZXJ0aW9ucy9jMnBhLmFjdGlvbnMudjJkaGFzaFggqK3cbo5QPZ+3oMRdONvc2NntgnaiCmge8/csBQGR/faiY3VybHgpc2VsZiNqdW1iZj1jMnBhLmFzc2VydGlvbnMvYzJwYS5oYXNoLmRhdGFkaGFzaFggXYeSj/ayz7+yy8SXDWaCNdOyIbBoxXck15YaqtH+LO9oZGM6dGl0bGV4GlJlY3JhZnQgQUkgR2VuZXJhdGVkIEltYWdlY2FsZ2ZzaGEyNTYAAAfcanVtYgAAAChqdW1kYzJjcwARABCAAACqADibcQNjMnBhLnNpZ25hdHVyZQAAAAesY2JvctKEWQOwogEmGCGCWQHnMIIB4zCCAYmgAwIBAgIJALfeWmNDUW56MAoGCCqGSM49BAMCMEAxHzAdBgNVBAMMFlJlY3JhZnQgU3RhZ2luZyBEZXYgQ0ExEDAOBgNVBAoMB1JlY3JhZnQxCzAJBgNVBAYTAlVTMB4XDTI2MDYxMjE5NDM1MFoXDTI3MDYxMjE5NDM1MFowNzELMAkGA1UEBhMCVVMxEzARBgNVBAoTClJlY3JhZnQgQUkxEzARBgNVBAMTCnJlY3JhZnQuYWkwWTATBgcqhkjOPQIBBggqhkjOPQMBBwNCAARKaTVbACsg/DeG3LeOxYdID/VA6EFG73E6Oknb+KIiCFJygRUz4ueN2z/t2qYb6CIUvS8RvgOiiClfoqsYtw81o3UwczAMBgNVHRMBAf8EAjAAMA4GA1UdDwEB/wQEAwIGwDATBgNVHSUEDDAKBggrBgEFBQcDBDAdBgNVHQ4EFgQULzHpBen96SL1y4IPHa8MkMshXf0wHwYDVR0jBBgwFoAUAgsqOBrKqpdK//m/kxZo7ZR4ebcwCgYIKoZIzj0EAwIDSAAwRQIgU8hKW0aXvvk8SQgVFNkax69Ym9ae8GsT2RZTQw+B51ACIQC0D4BkEoRD4N0r2ZRkNy0HZaW3WICy/QZGN95ilF4yzFkBvTCCAbkwggFfoAMCAQICCQCc+Wg7T6ATbzAKBggqhkjOPQQDAjBAMR8wHQYDVQQDDBZSZWNyYWZ0IFN0YWdpbmcgRGV2IENBMRAwDgYDVQQKDAdSZWNyYWZ0MQswCQYDVQQGEwJVUzAeFw0yNjA2MTIxOTQwMTZaFw0yODA2MTExOTQwMTZaMEAxHzAdBgNVBAMMFlJlY3JhZnQgU3RhZ2luZyBEZXYgQ0ExEDAOBgNVBAoMB1JlY3JhZnQxCzAJBgNVBAYTAlVTMFkwEwYHKoZIzj0CAQYIKoZIzj0DAQcDQgAEQ9IQBlcVbKaKPYrQSfOhL/00s7xUDC7RinIuLO/I1k99y9yh6oWF9kPxaP+tx1v1PeOL3yrVquJ730H0ZGiDyqNCMEAwDwYDVR0TAQH/BAUwAwEB/zAOBgNVHQ8BAf8EBAMCAYYwHQYDVR0OBBYEFAILKjgayqqXSv/5v5MWaO2UeHm3MAoGCCqGSM49BAMCA0gAMEUCIFQwNImLlYDeQhjgF+ZiqTbgcuzSqmOJw3Q2lQ/hu83FAiEA9O8cLm/xfoVLqB4jtdbuHzi3WL+p2RN+DRGkwpYswVuhY3BhZFkDpAAAAAAAAAAAAAAAAAAAAAAAAAAAAAAAAAAAAAAAAAAAAAAAAAAAAAAAAAAAAAAAAAAAAAAAAAAAAAAAAAAAAAAAAAAAAAAAAAAAAAAAAAAAAAAAAAAAAAAAAAAAAAAAAAAAAAAAAAAAAAAAAAAAAAAAAAAAAAAAAAAAAAAAAAAAAAAAAAAAAAAAAAAAAAAAAAAAAAAAAAAAAAAAAAAAAAAAAAAAAAAAAAAAAAAAAAAAAAAAAAAAAAAAAAAAAAAAAAAAAAAAAAAAAAAAAAAAAAAAAAAAAAAAAAAAAAAAAAAAAAAAAAAAAAAAAAAAAAAAAAAAAAAAAAAAAAAAAAAAAAAAAAAAAAAAAAAAAAAAAAAAAAAAAAAAAAAAAAAAAAAAAAAAAAAAAAAAAAAAAAAAAAAAAAAAAAAAAAAAAAAAAAAAAAAAAAAAAAAAAAAAAAAAAAAAAAAAAAAAAAAAAAAAAAAAAAAAAAAAAAAAAAAAAAAAAAAAAAAAAAAAAAAAAAAAAAAAAAAAAAAAAAAAAAAAAAAAAAAAAAAAAAAAAAAAAAAAAAAAAAAAAAAAAAAAAAAAAAAAAAAAAAAAAAAAAAAAAAAAAAAAAAAAAAAAAAAAAAAAAAAAAAAAAAAAAAAAAAAAAAAAAAAAAAAAAAAAAAAAAAAAAAAAAAAAAAAAAAAAAAAAAAAAAAAAAAAAAAAAAAAAAAAAAAAAAAAAAAAAAAAAAAAAAAAAAAAAAAAAAAAAAAAAAAAAAAAAAAAAAAAAAAAAAAAAAAAAAAAAAAAAAAAAAAAAAAAAAAAAAAAAAAAAAAAAAAAAAAAAAAAAAAAAAAAAAAAAAAAAAAAAAAAAAAAAAAAAAAAAAAAAAAAAAAAAAAAAAAAAAAAAAAAAAAAAAAAAAAAAAAAAAAAAAAAAAAAAAAAAAAAAAAAAAAAAAAAAAAAAAAAAAAAAAAAAAAAAAAAAAAAAAAAAAAAAAAAAAAAAAAAAAAAAAAAAAAAAAAAAAAAAAAAAAAAAAAAAAAAAAAAAAAAAAAAAAAAAAAAAAAAAAAAAAAAAAAAAAAAAAAAAAAAAAAAAAAAAAAAAAAAAAAAAAAAAAAAAAAAAAAAAAAAAAAAAAAAAAAAAAAAAAAAAAAAAAAAAAAAAAAAAAAAAAAAAAAAAAAAAAAAAAAAAAAAAAAAAAAAAAAAAAAAAAAAAAAAAAAAAAAAAAAAAAAAAAAAAAAAAAAAAAAAAAAAAAAAAAAAAAAAA9lhAaE8BE6DFm1GbiGLybcuQxTI7Hq8bWZcN1IFNUi+8I+NcC0J7Hh9x9xYtoh4lJ7z34bXRAjZchxRCSDduXWwVrw==</c2pa:manifest></metadata>
<path transform="translate(0,0)" fill="rgb(255,255,255)" d="M 0 0 L 2048 0 L 2048 2048 L 0 2048 L 0 0 z"/>
<path transform="translate(0,0)" fill="rgb(8,51,125)" d="M 810.727 473.432 C 834.885 472.295 864.215 473.106 888.685 473.081 L 1038.89 473.035 L 1169.21 473.096 C 1195.22 473.157 1228.38 472.506 1253.72 474.802 C 1328.13 481.208 1398.48 511.523 1454.24 561.217 C 1524.78 623.759 1567.24 712.023 1572.06 806.174 C 1573.5 832.093 1572.95 862.086 1572.96 888.231 L 1572.98 1017.6 L 1572.95 1155.45 C 1572.91 1208.08 1575.34 1257.61 1562.53 1309.12 C 1548.03 1365.45 1520.07 1417.41 1481.04 1460.53 C 1417.89 1530.85 1334.98 1568.86 1241.25 1573.95 C 1155.47 1576.34 1064.31 1575.14 978.18 1575.09 L 876.455 1575.02 C 828.145 1575 788.204 1576.64 740.822 1564.76 C 686.015 1551.02 636.71 1525.66 594.39 1487.77 C 527.504 1427.88 483.362 1341.89 477.344 1251.92 C 475.499 1224.33 476.209 1191.39 476.152 1163.55 L 476.101 1015.39 L 476.138 880.286 C 476.134 851.997 475.245 817.81 477.762 790.005 C 484.955 716.12 515.162 646.358 564.123 590.559 C 627.521 518.643 715.837 479.561 810.727 473.432 z"/>
<path transform="translate(0,0)" fill="rgb(255,255,255)" d="M 1018.83 676.145 C 1042.33 674.741 1053.08 689.003 1072.22 700.642 L 1164.51 755.743 C 1194.35 773.687 1224.43 791.238 1254.73 808.39 C 1336.8 855.336 1323.17 843.11 1323.03 937.247 L 1323.02 1066.64 L 1323.08 1140.32 C 1323.1 1158.06 1325.54 1180.7 1318.25 1196.61 C 1315.32 1203 1310.17 1207.8 1304.26 1211.45 C 1276.56 1228.56 1248.25 1244.72 1220.33 1261.48 L 1116.9 1323.55 C 1092.67 1338.24 1060.99 1359.09 1035.18 1371.18 C 1031.44 1372.94 1016.06 1370.03 1011.66 1367.71 C 992.314 1357.5 971.728 1344.93 952.796 1333.87 C 942.199 1343.86 929.646 1354.4 918.602 1364.09 L 825.402 1449.69 C 839.037 1415.58 857.32 1381.72 871.236 1347.48 C 877.871 1331.15 886.964 1315.28 892.278 1298.35 C 883.903 1292.31 867.835 1283.57 858.384 1277.93 C 834.319 1263.4 810.054 1249.2 785.596 1235.33 C 769.608 1226.25 750.982 1215.88 736.803 1204.54 C 721.824 1192.56 725.807 1159.48 725.867 1141.33 L 725.888 1063.9 L 725.76 937.706 C 725.719 914.482 725.563 891.307 726.089 868.091 C 726.715 840.495 757.125 829.495 778.201 817.252 L 847.611 776.715 L 957.877 710.764 C 969.22 703.946 1008.74 678.513 1018.83 676.145 z"/>
<path transform="translate(0,0)" fill="rgb(177,99,74)" d="M 1019.07 700.474 C 1022.96 702.281 1033.25 709.134 1037.29 711.649 C 1048.15 718.345 1059.07 724.952 1070.03 731.471 C 1110.88 755.554 1151.51 780.005 1191.91 804.821 C 1125.42 867.63 1061.19 932.152 995.499 995.711 C 1031.02 993.863 1070.17 993.279 1105.88 992.081 C 1154.14 990.169 1202.41 988.609 1250.68 987.402 C 1228.51 1013.89 1193.72 1047.46 1169 1073.48 L 991.499 1259.67 L 918.5 1336.25 C 905.526 1349.96 892.921 1364.3 879.655 1377.65 C 887.361 1356.94 904.383 1323.3 914.115 1302.33 C 938.236 1250.74 962.681 1199.3 987.449 1148.01 C 999.39 1123.13 1013.17 1096.19 1024.11 1071.11 L 817.509 1072.98 C 823.087 1060.22 833.162 1042.54 839.975 1029.92 C 854.639 1002.66 869.554 975.547 884.718 948.57 L 958.472 813.398 C 979.002 775.692 999.551 738.793 1019.07 700.474 z"/>
</svg>